<svg width="57" height="28" viewBox="0 0 57 28" fill="none" xmlns="http://www.w3.org/2000/svg">
<g id="car-suv-svgrepo-com 1" clip-path="url(#clip0_175_3244)">
<g id="Group">
<path id="Vector" fill-rule="evenodd" clip-rule="evenodd" d="M29.9426 0.00292969H42.0984H45.1351C45.3091 0.00292969 45.3732 0.158656 45.4465 0.314383L46.6649 2.84723C46.7381 3.00296 46.5229 3.15868 46.3534 3.15868H25.6876C24.3364 3.16326 26.6448 0.00292969 29.9426 0.00292969ZM10.9852 20.9527V22.6657H12.6981C12.492 21.8275 11.8279 21.1588 10.9852 20.9527ZM12.6981 23.7879H10.9852V25.5009C11.8279 25.2948 12.492 24.6306 12.6981 23.7879ZM9.86759 25.5009V23.7879H8.1546C8.36071 24.6306 9.02483 25.2948 9.86759 25.5009ZM8.15002 22.6703H9.86301V20.9573C9.02483 21.1634 8.36071 21.8275 8.15002 22.6703ZM41.3152 20.9527V22.6657H43.0282C42.8221 21.8275 42.158 21.1588 41.3152 20.9527ZM43.0282 23.7879H41.3152V25.5009C42.158 25.2948 42.8221 24.6306 43.0282 23.7879ZM40.1976 25.5009V23.7879H38.4846C38.6862 24.6306 39.3503 25.2948 40.1976 25.5009ZM38.4801 22.6703H40.193V20.9573C39.3503 21.1634 38.6862 21.8275 38.4801 22.6703ZM41.1366 5.85184H42.7488C45.0755 5.95718 46.0328 5.87474 46.958 6.58009C48.103 7.4549 48.5519 11.3206 49.0282 13.1069C49.0603 13.2259 48.9229 13.3359 48.7992 13.3359H41.6954C41.5717 13.3359 41.4801 13.2351 41.4663 13.1069L40.9076 6.07627C40.8984 5.95718 41.0129 5.85184 41.1366 5.85184ZM30.3411 5.89306H25.0738C22.6692 5.89306 18.7119 9.84576 17.6768 13.0427C17.6264 13.1985 17.8096 13.3405 17.9745 13.3405H29.5075C29.6723 13.3405 29.7823 13.2076 29.8052 13.0427L30.6433 6.19077C30.6571 6.02588 30.5014 5.89306 30.3411 5.89306ZM32.622 5.86558H39.0663C39.19 5.86558 39.2862 5.97092 39.2953 6.09459L39.7854 13.1114C39.7946 13.2351 39.6801 13.3405 39.5564 13.3405H31.7838C31.6601 13.3405 31.5411 13.2351 31.5548 13.1114L32.393 6.09459C32.4067 5.96634 32.4937 5.86558 32.622 5.86558ZM10.4264 18.4657C13.0554 18.4657 15.1898 20.6001 15.1898 23.2291C15.1898 25.8581 13.0554 27.9925 10.4264 27.9925C7.79734 27.9925 5.66297 25.8581 5.66297 23.2291C5.66297 20.6001 7.79734 18.4657 10.4264 18.4657ZM0.899573 18.681C1.14232 18.571 1.40797 18.5206 1.69653 18.5252C1.68279 17.0229 1.78355 15.713 2.13164 14.7832C2.25989 14.2473 2.49348 13.858 2.80493 13.574C3.78509 12.6992 12.5378 11.9298 14.3837 11.6916C16.6509 9.47477 19.1745 7.44574 21.8631 5.52664C22.6097 4.89458 23.6769 4.58312 25.0234 4.55106L46.2801 4.53274C47.8878 4.52358 49.1244 5.21061 49.9122 6.75413L51.6848 11.861L52.0878 11.7511V9.76332C52.0145 9.09919 52.2756 8.76942 52.784 8.68697H55.1657C55.8207 8.71446 56.2833 9.04423 56.3565 9.99233V17.055C56.3611 17.7832 56.0955 18.2596 55.4222 18.3603H53.21C52.9901 18.4107 53.0588 18.5802 53.0405 18.8138V21.223C52.8802 23.0001 52.3947 24.3741 50.9702 24.5528H46.6603C46.7519 22.4642 46.358 20.7558 45.4007 19.4779C41.9244 14.8336 34.3808 17.6 34.8892 24.5665H16.3669C16.5226 22.3405 16.1012 20.6504 15.1806 19.4367C11.7134 14.8611 3.64769 17.3298 4.60037 24.7085H1.73775C0.0110158 24.7085 -0.552348 19.3268 0.899573 18.681ZM40.7564 18.4657C43.3854 18.4657 45.5198 20.6001 45.5198 23.2291C45.5198 25.8581 43.3854 27.9925 40.7564 27.9925C38.1274 27.9925 35.993 25.8581 35.993 23.2291C35.993 20.6001 38.1228 18.4657 40.7564 18.4657Z" fill="white"/>
</g>
</g>
<defs>
<clipPath id="clip0_175_3244">
<rect width="56.4221" height="28" fill="white"/>
</clipPath>
</defs>
</svg>
