<svg width="282" height="101" viewBox="0 0 282 101" fill="none" xmlns="http://www.w3.org/2000/svg">
<path fill-rule="evenodd" clip-rule="evenodd" d="M10 0C4.47715 0 0 4.47715 0 10V72V76V89.7196C7.68028 94.625 25.5453 100.772 35.5631 86.1156C48.0853 67.7953 68.1208 80.7096 69.6234 85.2146C71.1261 89.7196 84.1492 103.535 107.691 97.5283C126.524 92.7229 142.586 97.5283 148.263 100.532C155.275 101.633 170.703 101.493 176.313 92.1223C183.325 80.4093 200.856 78.9076 210.373 87.6173C219.89 96.3269 232.412 101.733 250.444 90.6206C264.87 81.7308 277.492 89.9198 282 95.1256V76V72V10C282 4.47715 277.523 0 272 0H10Z" fill="url(#paint0_linear_175_3060)"/>
<defs>
<linearGradient id="paint0_linear_175_3060" x1="0" y1="49.98" x2="275" y2="49.98" gradientUnits="userSpaceOnUse">
<stop stop-color="#099D90"/>
<stop offset="1" stop-color="#659F00"/>
</linearGradient>
</defs>
</svg>
