<svg width="19" height="18" viewBox="0 0 19 18" fill="none" xmlns="http://www.w3.org/2000/svg">
<path d="M14.5319 6.80382C14.2419 6.80382 14.0113 7.03435 14.0113 7.32437V8.49934C14.0113 11.1318 11.8696 13.2735 9.23715 13.2735C6.60466 13.2735 4.46296 11.1318 4.46296 8.49934V7.31694C4.46296 7.02692 4.23243 6.79639 3.94241 6.79639C3.6524 6.79639 3.42188 7.02692 3.42188 7.31694V8.4919C3.42188 11.5185 5.74947 14.0097 8.71661 14.2774V15.8614C8.71661 16.1514 8.94713 16.3819 9.23715 16.3819C9.52717 16.3819 9.75771 16.1514 9.75771 15.8614V14.2774C12.7174 14.0172 15.0524 11.5185 15.0524 8.4919V7.31694C15.045 7.03435 14.8145 6.80382 14.5319 6.80382Z" fill="#F2F2F2"/>
<path d="M9.2361 1.50928C7.42164 1.50928 5.94922 2.98169 5.94922 4.79618V8.60362C5.94922 10.4181 7.42164 11.8906 9.2361 11.8906C11.0506 11.8906 12.523 10.4181 12.523 8.60362V4.79618C12.523 2.98169 11.0506 1.50928 9.2361 1.50928ZM10.2103 6.67759C10.1582 6.87093 9.98718 6.99735 9.79383 6.99735C9.75665 6.99735 9.71946 6.98992 9.68228 6.98248C9.39226 6.90068 9.08737 6.90068 8.79735 6.98248C8.55938 7.04941 8.32886 6.90812 8.26936 6.67759C8.20244 6.44706 8.34373 6.20909 8.57426 6.1496C9.01301 6.03062 9.47406 6.03062 9.91281 6.1496C10.1359 6.20909 10.2698 6.44706 10.2103 6.67759ZM10.6044 5.23492C10.5375 5.4134 10.3739 5.51751 10.1954 5.51751C10.1433 5.51751 10.0987 5.51007 10.0467 5.4952C9.52612 5.30185 8.94608 5.30185 8.42553 5.4952C8.20244 5.577 7.9496 5.45802 7.8678 5.23492C7.786 5.01183 7.90498 4.75899 8.12807 4.68463C8.84197 4.42435 9.63023 4.42435 10.3441 4.68463C10.5672 4.76643 10.6862 5.01183 10.6044 5.23492Z" fill="#F2F2F2"/>
<line y1="-0.5" x2="20" y2="-0.5" transform="matrix(0.661622 -0.749838 -0.749838 -0.661622 3 17)" stroke="#FF0000"/>
</svg>
